%TF.GenerationSoftware,KiCad,Pcbnew,(5.1.6)-1*%
%TF.CreationDate,2025-07-03T10:53:41-05:00*%
%TF.ProjectId,relay_board,72656c61-795f-4626-9f61-72642e6b6963,rev?*%
%TF.SameCoordinates,PX2625a00PY839b680*%
%TF.FileFunction,Soldermask,Bot*%
%TF.FilePolarity,Negative*%
%FSLAX46Y46*%
G04 Gerber Fmt 4.6, Leading zero omitted, Abs format (unit mm)*
G04 Created by KiCad (PCBNEW (5.1.6)-1) date 2025-07-03 10:53:41*
%MOMM*%
%LPD*%
G01*
G04 APERTURE LIST*
%ADD10C,3.300000*%
%ADD11O,2.300000X3.570000*%
%ADD12O,3.100000X4.100000*%
%ADD13C,2.300000*%
%ADD14C,3.100000*%
%ADD15C,2.100000*%
G04 APERTURE END LIST*
D10*
%TO.C,REF\u002A\u002A*%
X104000000Y46000000D03*
%TD*%
%TO.C,REF\u002A\u002A*%
X104000000Y6000000D03*
%TD*%
%TO.C,REF\u002A\u002A*%
X4000000Y46000000D03*
%TD*%
%TO.C,REF\u002A\u002A*%
X4000000Y6000000D03*
%TD*%
D11*
%TO.C,K1*%
X22000000Y18950000D03*
D12*
X22000000Y31150000D03*
X9950000Y31200000D03*
D11*
X10000000Y18950000D03*
D12*
X15950000Y17000000D03*
%TD*%
%TO.C,K2*%
X35000000Y17000000D03*
D11*
X29050000Y18950000D03*
D12*
X29000000Y31200000D03*
X41050000Y31150000D03*
D11*
X41050000Y18950000D03*
%TD*%
%TO.C,K3*%
X60050000Y18950000D03*
D12*
X60050000Y31150000D03*
X48000000Y31200000D03*
D11*
X48050000Y18950000D03*
D12*
X54000000Y17000000D03*
%TD*%
%TO.C,K4*%
X73000000Y17000000D03*
D11*
X67050000Y18950000D03*
D12*
X67000000Y31200000D03*
X79050000Y31150000D03*
D11*
X79050000Y18950000D03*
%TD*%
%TO.C,K5*%
X98050000Y18950000D03*
D12*
X98050000Y31150000D03*
X86000000Y31200000D03*
D11*
X86050000Y18950000D03*
D12*
X92000000Y17000000D03*
%TD*%
D13*
%TO.C,D1*%
X10000000Y10000000D03*
X20160000Y10000000D03*
%TD*%
%TO.C,D2*%
X29000000Y10000000D03*
X39160000Y10000000D03*
%TD*%
%TO.C,D3*%
X58160000Y10000000D03*
X48000000Y10000000D03*
%TD*%
%TO.C,D4*%
X67000000Y10000000D03*
X77160000Y10000000D03*
%TD*%
%TO.C,D5*%
X96160000Y10000000D03*
X86000000Y10000000D03*
%TD*%
%TO.C,J1*%
X59000000Y4000000D03*
X56460000Y4000000D03*
X53920000Y4000000D03*
X51380000Y4000000D03*
X48840000Y4000000D03*
X46300000Y4000000D03*
%TD*%
D14*
%TO.C,J3*%
X10920000Y42000000D03*
X16000000Y42000000D03*
X21080000Y42000000D03*
%TD*%
%TO.C,J4*%
X40080000Y42000000D03*
X35000000Y42000000D03*
X29920000Y42000000D03*
%TD*%
%TO.C,J5*%
X48920000Y42000000D03*
X54000000Y42000000D03*
X59080000Y42000000D03*
%TD*%
%TO.C,J6*%
X78080000Y42000000D03*
X73000000Y42000000D03*
X67920000Y42000000D03*
%TD*%
%TO.C,J7*%
X86920000Y42000000D03*
X92000000Y42000000D03*
X97080000Y42000000D03*
%TD*%
D15*
X82000000Y13500000D03*
X60500000Y13200000D03*
X63500000Y13200000D03*
X41500000Y13000000D03*
X44500000Y13000000D03*
X22500000Y13000000D03*
X25500000Y13000000D03*
X13000000Y13000000D03*
M02*
