M48
; DRILL file {KiCad (5.1.6)-1} date 07/03/25 10:53:43
; FORMAT={-:-/ absolute / metric / decimal}
; #@! TF.CreationDate,2025-07-03T10:53:43-05:00
; #@! TF.GenerationSoftware,Kicad,Pcbnew,(5.1.6)-1
FMAT,2
METRIC
T1C0.800
T2C0.900
T3C3.200
%
G90
G05
T1
X13.0Y13.0
X22.5Y13.0
X25.5Y13.0
X41.5Y13.0
X44.5Y13.0
X60.5Y13.2
X63.5Y13.2
X82.0Y13.5
T2
X9.95Y31.2
X10.0Y18.95
X15.95Y17.0
X22.0Y31.15
X22.0Y18.95
X67.0Y10.0
X77.16Y10.0
X67.92Y42.0
X73.0Y42.0
X78.08Y42.0
X67.0Y31.2
X67.05Y18.95
X73.0Y17.0
X79.05Y31.15
X79.05Y18.95
X48.0Y31.2
X48.05Y18.95
X54.0Y17.0
X60.05Y31.15
X60.05Y18.95
X86.92Y42.0
X92.0Y42.0
X97.08Y42.0
X10.0Y10.0
X20.16Y10.0
X29.0Y31.2
X29.05Y18.95
X35.0Y17.0
X41.05Y31.15
X41.05Y18.95
X48.92Y42.0
X54.0Y42.0
X59.08Y42.0
X29.0Y10.0
X39.16Y10.0
X29.92Y42.0
X35.0Y42.0
X40.08Y42.0
X10.92Y42.0
X16.0Y42.0
X21.08Y42.0
X48.0Y10.0
X58.16Y10.0
X86.0Y10.0
X96.16Y10.0
X46.3Y4.0
X48.84Y4.0
X51.38Y4.0
X53.92Y4.0
X56.46Y4.0
X59.0Y4.0
X86.0Y31.2
X86.05Y18.95
X92.0Y17.0
X98.05Y31.15
X98.05Y18.95
T3
X4.0Y46.0
X104.0Y6.0
X4.0Y6.0
X104.0Y46.0
T0
M30
